<svg version="1.1" preserveAspectRatio="xMinYMin meet" viewBox="0 0 580.2 219.439" class="error404">

	<path d="M153.153,8.154v126.878h23.753v37.079h-23.753v38.526h-37.658v-38.526H7.157l-3.476-38.817L94.928,8.154H153.153z
		 M115.495,135.032V41.177l-68.653,93.855H115.495z"/>
	<path d="M200.074,94.478c0-121.084,177.86-120.794,177.86,0v29.257c0,120.794-177.86,121.084-177.86,0V94.478z M238.021,123.735
		c0,73.577,101.965,73.577,101.965,0V94.478c0-72.419-101.965-73.288-101.965,0V123.735z"/>
	<path d="M551.446,8.154v126.878H575.2v37.079h-23.753v38.526h-37.658v-38.526H405.45l-3.476-38.817l91.247-125.14H551.446z
		 M513.789,135.032V41.177l-68.653,93.855H513.789z"/>
</g>
</svg>